<svg xmlns="http://www.w3.org/2000/svg" width="18" height="20" viewBox="0 0 18 20">
    <g fill="none" fill-rule="evenodd">
        <path fill="#FFF" d="M-1303-67H137v4000h-1440z"/>
        <path fill="#202027" stroke="#202027" stroke-width=".5" d="M15.57 4.087H12.86A4.303 4.303 0 0 0 8.596.401a4.303 4.303 0 0 0-4.263 3.686H1.622c-.723 0-1.308.584-1.308 1.304v13.044c0 .72.585 1.304 1.308 1.304H15.57c.722 0 1.308-.584 1.308-1.304V5.39c0-.72-.586-1.304-1.308-1.304zM8.596 1.696a3.254 3.254 0 0 1 2.93 2.391h-5.86a3.254 3.254 0 0 1 2.93-2.391zm6.974 16.739H1.622V5.39h2.615v1.305a.653.653 0 0 0 1.308 0V5.39h6.102v1.305a.653.653 0 0 0 1.308 0V5.39h2.615v13.044z"/>
    </g>
</svg>
