<svg xmlns="http://www.w3.org/2000/svg" width="17" height="17" viewBox="0 0 17 17">
    <g fill="none" fill-rule="evenodd">
        <path fill="#FFF" d="M-1263-70H177v4000h-1440z"/>
        <path fill="#000" stroke="#202027" stroke-width=".571" d="M15.636 15.701L12.171 12.2c2.428-2.482 2.502-6.465.168-9.038a6.364 6.364 0 0 0-8.881-.567C.825 4.85.408 8.812 2.511 11.583a6.368 6.368 0 0 0 8.798 1.356l3.532 3.589c.222.21.567.203.781-.014a.578.578 0 0 0 .014-.794v-.019zM2.395 7.629c0-2.946 2.35-5.334 5.25-5.334s5.25 2.388 5.25 5.334c0 2.945-2.35 5.333-5.25 5.333s-5.25-2.388-5.25-5.333z"/>
    </g>
</svg>
