<svg xmlns="http://www.w3.org/2000/svg" width="20" height="20" viewBox="0 0 20 20">
    <g fill="none" fill-rule="evenodd">
        <path fill="#FFF" d="M-610-3895H830V105H-610z"/>
        <g fill="#000">
            <path d="M14.753 1.581a3.72 3.72 0 0 1 3.721 3.721v9.303a3.72 3.72 0 0 1-3.72 3.72H5.45a3.72 3.72 0 0 1-3.72-3.72V5.302a3.72 3.72 0 0 1 3.72-3.72h9.302zm0-1.395H5.451A5.116 5.116 0 0 0 .335 5.302v9.303A5.116 5.116 0 0 0 5.45 19.72h9.302a5.116 5.116 0 0 0 5.117-5.116V5.302A5.116 5.116 0 0 0 14.753.186z"/>
            <path d="M10.102 5.767a4.186 4.186 0 1 1 0 8.373 4.186 4.186 0 0 1 0-8.373zm0-1.395a5.581 5.581 0 1 0 0 11.163 5.581 5.581 0 0 0 0-11.163z"/>
            <circle cx="15.451" cy="4.14" r="1"/>
        </g>
    </g>
</svg>
