<svg xmlns="http://www.w3.org/2000/svg" width="13" height="14" viewBox="0 0 13 14">
    <g fill="#202027" fill-rule="evenodd">
        <path d="M11.907.13H4.24a1.005 1.005 0 0 0-.847.463L.727 3.197a.972.972 0 0 0-.487.84v8.79c0 .54.448.978 1 .978h10.667c.552 0 1-.438 1-.977V1.107a.989.989 0 0 0-1-.977zM3.24 2.123v.937h-.96l.96-.937zm8.667 10.705H1.24V4.07h.02l.02-.02h2.96V1.16l.02-.02v-.02h7.633l.014 11.708z"/>
        <path d="M9.907 7.619H3.24c-.276 0-.5.218-.5.488s.224.488.5.488h6.667c.276 0 .5-.218.5-.488a.494.494 0 0 0-.5-.488zM8.907 9.898H3.24c-.276 0-.5.218-.5.488s.224.488.5.488h5.667c.276 0 .5-.218.5-.488a.494.494 0 0 0-.5-.488zM7.573 6.316h2c.553 0 1-.437 1-.976V3.386a.989.989 0 0 0-1-.977h-2c-.552 0-1 .438-1 .977V5.34c0 .539.448.976 1 .976zm0-2.93h2V5.34h-2V3.386z"/>
    </g>
</svg>
