<svg xmlns="http://www.w3.org/2000/svg" width="14" height="14" viewBox="0 0 14 14">
    <path fill="#202027" fill-rule="evenodd" d="M13.293 1.467L10.038.194a.997.997 0 0 0-.85.064.997.997 0 0 0-.85-.064L5.082 1.467a.987.987 0 0 0-.127.06.987.987 0 0 0-.127-.06L1.573.194a.996.996 0 0 0-.91.097.949.949 0 0 0-.429.79v10.5c0 .392.244.744.616.889l3.256 1.272a.997.997 0 0 0 .85-.063c.258.147.57.17.85.063L9.06 12.47a.987.987 0 0 0 .127-.06c.04.022.083.042.127.06l3.256 1.272c.3.117.642.081.91-.097a.949.949 0 0 0 .428-.79v-10.5a.955.955 0 0 0-.616-.888zM1.211 11.582v-10.5l3.256 1.273v10.5l-3.256-1.273zm4.233 1.273v-10.5L8.7 1.082v10.5l-3.256 1.273zm7.488 0l-3.256-1.273v-10.5l3.256 1.273v10.5z"/>
</svg>
