<svg xmlns="http://www.w3.org/2000/svg" width="12" height="14" viewBox="0 0 12 14">
    <path fill="#202027" fill-rule="evenodd" d="M11.36 10.35c-.126-.115-1.15-1.153-1.15-4.427a4.785 4.785 0 0 0-1.182-3.044 4.448 4.448 0 0 0-1.443-1.123A1.683 1.683 0 0 0 5.893 0 1.683 1.683 0 0 0 4.2 1.756 4.448 4.448 0 0 0 2.758 2.88a4.785 4.785 0 0 0-1.182 3.044c0 3.268-1.022 4.303-1.148 4.419a.866.866 0 0 0-.39.998c.122.4.5.67.923.66H3.97a.45.45 0 0 0 0 .627 2.651 2.651 0 0 0 1.89.789c.71 0 1.392-.284 1.888-.789a.45.45 0 0 0 0-.608h3.05c.422.01.8-.26.923-.66a.869.869 0 0 0-.36-1.008zM5.903.9a.851.851 0 0 1 .72.53 3.57 3.57 0 0 0-1.44 0 .851.851 0 0 1 .72-.53zm0 1.37c1.95 0 3.385 1.948 3.385 3.653-.018 1.025.104 2.049.36 3.043h-7.49c.257-.994.378-2.018.36-3.043 0-1.705 1.434-3.653 3.385-3.653zM5.881 12.51a1.711 1.711 0 0 1-1.231-.502h2.43c-.316.318-.748.499-1.2.502zM.979 11.097c.385-.328.68-.747.855-1.218h8.139c.176.471.47.89.855 1.218H.98z"/>
</svg>
