<svg xmlns="http://www.w3.org/2000/svg" width="14" height="12" viewBox="0 0 14 12">
    <path fill="#202027" fill-rule="evenodd" d="M3.973 1.09v1.82h2.27s3.406.363 4.919 1.817c1.366 1.313 1.514 5.818 1.514 5.818s-.379-5.454-6.433-5.454h-2.27v1.454L1.135 4l2.838-2.91zm0-1.09c-.314 0-.614.125-.829.345L.306 3.255c-.428.44-.404 1.13.053 1.541l2.838 2.546c.331.285.805.357 1.212.186.408-.171.673-.555.68-.983v-.363h1.135c4.92 0 5.298 4.254 5.298 4.436.04.574.536 1.02 1.135 1.018h.056c.618-.03 1.098-.529 1.079-1.123-.027-.826-.246-5.018-1.847-6.546-1.744-1.676-5.206-2.09-5.596-2.13H5.09v-.728C5.09.507 4.581.02 3.954.02L3.973 0z"/>
</svg>
