<svg xmlns="http://www.w3.org/2000/svg" width="14" height="10" viewBox="0 0 14 10">
    <g fill="#202027" fill-rule="evenodd">
        <path d="M13.913 2.387c0-1.247-.975-2.258-2.178-2.258H2.402C1.199.129.224 1.14.224 2.387v5.161c0 1.247.975 2.258 2.178 2.258h9.333c1.203 0 2.178-1.01 2.178-2.258v-5.16zM2.402 1.097h9.333c.687 0 1.245.577 1.245 1.29v.968H1.157v-.968c0-.713.557-1.29 1.245-1.29zm9.333 7.742H2.402c-.688 0-1.245-.578-1.245-1.29V4.322H12.98v3.225c0 .713-.558 1.29-1.245 1.29z"/>
        <ellipse cx="11.268" cy="2.226" rx="1" ry="1"/>
        <ellipse cx="9.402" cy="2.226" rx="1" ry="1"/>
        <ellipse cx="7.535" cy="2.226" rx="1" ry="1"/>
    </g>
</svg>
