<svg xmlns="http://www.w3.org/2000/svg" width="12" height="14" viewBox="0 0 12 14">
    <g fill="#202027" fill-rule="evenodd">
        <path d="M5.965 8.465a.556.556 0 0 1-.513-.337.542.542 0 0 1 .119-.596.578.578 0 0 1 .786 0 .54.54 0 0 1 .164.389.47.47 0 0 0 .474.467.47.47 0 0 0 .473-.467 1.48 1.48 0 0 0-1.171-1.44l-.016-.29a.47.47 0 0 0-.474-.467.47.47 0 0 0-.473.467v.392c-.643.29-.994.982-.842 1.662.153.68.766 1.164 1.473 1.16a.666.666 0 0 1 .662.583.66.66 0 0 1-.507.717h-.3a.658.658 0 0 1-.524-.709.469.469 0 0 0-.423-.51.472.472 0 0 0-.348.1.458.458 0 0 0-.17.317 1.584 1.584 0 0 0 .982 1.627.467.467 0 0 0 .417.417.47.47 0 0 0 .499-.318 1.597 1.597 0 0 0 1.325-1.711 1.608 1.608 0 0 0-1.616-1.45l.003-.003z"/>
        <path d="M11.902 11.461c-.126-1.397-.742-5.883-3.474-7.569v-.019l.948-2.489a.922.922 0 0 0-.11-.858.952.952 0 0 0-.778-.402H3.436c-.31 0-.601.15-.778.402a.922.922 0 0 0-.11.858l.948 2.49v.018C.758 5.578.142 10.064.022 11.462a2.14 2.14 0 0 0 .565 1.642c.42.453 1.014.71 1.636.71h7.469c.622 0 1.216-.257 1.635-.71a2.14 2.14 0 0 0 .575-1.643zM3.44 1.058h5.053l-.948 2.489H4.386l-.947-2.49zM9.698 12.88H2.233a1.272 1.272 0 0 1-.929-.397 1.233 1.233 0 0 1-.335-.94C1.203 8.95 2.16 5.484 4.383 4.48h3.158c2.21 1.008 3.183 4.47 3.414 7.062.026.345-.094.685-.333.939a1.272 1.272 0 0 1-.924.399z"/>
    </g>
</svg>
