<svg xmlns="http://www.w3.org/2000/svg" width="13" height="14" viewBox="0 0 13 14">
    <path fill="#202027" fill-rule="evenodd" d="M12.17 3.153a1.3 1.3 0 0 0 .153-.603c0-.763-.536-1.75-2.083-1.75a5.237 5.237 0 0 0-1.717.463l.124-.173a.5.5 0 1 0-.814-.58L6.62 2.207 5.673.54a.5.5 0 1 0-.87.497l.227.396A5.11 5.11 0 0 0 2.903.79c-.643 0-1.03.313-1.43.597-.4.25-.65.682-.666 1.153a1.3 1.3 0 0 0 .153.603 1 1 0 0 0-.737.96V5.8a1 1 0 0 0 1 1v6a1 1 0 0 0 1 1h8.667a1 1 0 0 0 1-1v-6a1 1 0 0 0 1-1V4.113a1 1 0 0 0-.72-.96zm-.847-.603a.453.453 0 0 1-.223.333c-.2.149-.44.232-.69.24H7.497A3.773 3.773 0 0 1 10.24 1.79c.863.01 1.083.517 1.083.76zM1.24 4.133h4.667V5.8H1.24V4.133zM2.907 1.8A3.773 3.773 0 0 1 5.65 3.133H2.74c-.627 0-.913-.36-.913-.566 0-.207.216-.767 1.08-.767zm-.667 5h3.667v6H2.24v-6zm8.667 6h-4v-6h4v6zm1-7h-5V4.133h5V5.8z"/>
</svg>
